<svg width="512" height="512" viewBox="0 0 24 24" xmlns="http://www.w3.org/2000/svg"><path fill="#FF5500" d="M12 12h.01v.01H12zm1.6-1.6h.01v.01h-.01zm4.8 0h.01v.01h-.01zm-3.2 0h.01v.01h-.01zm-3.2 0h.01v.01H12zm-3.1 1.6h.01v.01H8.9zm-1.6 0h.01v.01H7.3zm-1.6 0h.01v.01H5.7zm1.6 1.6h.01v.01H7.3zm0-3.2h.01v.01H7.3zm1.6 0h.01v.01H8.9zm1.6 0h.01v.01h-.01zm1.6 0h.01v.01h-.01zm1.6 0h.01v.01h-.01zm-6.4 0h.01v.01H7.3zm-1.6 0h.01v.01H5.7zm-1.6 0h.01v.01H4.1zm15.2 0h.01v.01h-.01zm0 1.6h.01v.01h-.01zm0 1.6h.01v.01h-.01zm-1.6 0h.01v.01h-.01zm-1.6 0h.01v.01h-.01zm0-1.6h.01v.01h-.01zm0-1.6h.01v.01h-.01zm-1.6 0h.01v.01h-.01zm-1.6 0h.01v.01h-.01zm-1.6 0h.01v.01h-.01zM1.17 12.22c-.06.32-.07.65-.02.98.11.8.52 1.5 1.13 1.99.61.5 1.38.68 2.16.52.07-.01.13-.03.2-.05v-4.04c-.66-.26-1.1-.9-1.1-1.64 0-1.19.9-2.15 2.05-2.28.23-.97.93-1.75 1.83-2.08 1.32-.49 2.81-.16 3.82.85.12-.01.25-.01.37-.01 3.04 0 5.5 2.46 5.5 5.5s-2.46 5.5-5.5 5.5h-7.5c-2.48 0-4.5-2.01-4.5-4.5 0-1.07.38-2.06 1.01-2.84z"/></svg>
