<svg width="512" height="512" viewBox="0 0 24 24" xmlns="http://www.w3.org/2000/svg"><defs><radialGradient id="rg" cx="50%" cy="50%" r="50%" fx="50%" fy="50%"><stop offset="0%" stop-color="#fd5949"/><stop offset="100%" stop-color="#d6249f"/></radialGradient></defs><rect width="24" height="24" rx="6" fill="url(#rg)"/><path fill="white" d="M12 5.838c-3.403 0-6.162 2.759-6.162 6.162S8.597 18.162 12 18.162s6.162-2.759 6.162-6.162S15.403 5.838 12 5.838zm0 10.162c-2.209 0-4-1.791-4-4s1.791-4 4-4 4 1.791 4 4-1.791 4-4 4zm6.406-11.845a1.44 1.44 0 1 0 0 2.881 1.44 1.44 0 0 0 0-2.881z"/></svg>
